<svg xmlns="http://www.w3.org/2000/svg" version="1.1" xmlns:xlink="http://www.w3.org/1999/xlink" xmlns:svgjs="http://svgjs.dev/svgjs" viewBox="0 0 800 800"><defs><linearGradient x1="50%" y1="0%" x2="50%" y2="100%" id="ffflurry-grad" gradientTransform="rotate(270)"><stop stop-color="hsl(238, 82%, 13%)" stop-opacity="1" offset="0%"></stop><stop stop-color="hsl(1.4, 100%, 67%)" stop-opacity="1" offset="45%"></stop><stop stop-color="hsl(167, 52%, 78%)" stop-opacity="1" offset="100%"></stop></linearGradient></defs><rect width="100%" height="100%" fill="hsl(238, 82%, 13%)"></rect><g fill="url(#ffflurry-grad)"><rect width="163" height="3" x="359.5" y="403.5" rx="1.5" transform="rotate(45, 441, 405)" opacity="0.30"></rect><rect width="724" height="3" x="-306" y="78.5" rx="1.5" transform="rotate(45, 56, 80)" opacity="0.52"></rect><rect width="98" height="3" x="280" y="459.5" rx="1.5" transform="rotate(45, 329, 461)" opacity="0.85"></rect><rect width="410" height="3" x="508" y="743.5" rx="1.5" transform="rotate(45, 713, 745)" opacity="0.81"></rect><rect width="529" height="3" x="-104.5" y="114.5" rx="1.5" transform="rotate(45, 160, 116)" opacity="0.80"></rect><rect width="314" height="3" x="612" y="204.5" rx="1.5" transform="rotate(45, 769, 206)" opacity="0.91"></rect><rect width="125" height="3" x="711.5" y="44.5" rx="1.5" transform="rotate(45, 774, 46)" opacity="0.22"></rect><rect width="298" height="3" x="493" y="757.5" rx="1.5" transform="rotate(45, 642, 759)" opacity="1.00"></rect><rect width="105" height="3" x="705.5" y="298.5" rx="1.5" transform="rotate(45, 758, 300)" opacity="0.92"></rect><rect width="218" height="3" x="265" y="237.5" rx="1.5" transform="rotate(45, 374, 239)" opacity="0.55"></rect><rect width="421" height="3" x="352.5" y="748.5" rx="1.5" transform="rotate(45, 563, 750)" opacity="0.43"></rect><rect width="364" height="3" x="203" y="371.5" rx="1.5" transform="rotate(45, 385, 373)" opacity="0.48"></rect><rect width="532" height="3" x="385" y="439.5" rx="1.5" transform="rotate(45, 651, 441)" opacity="0.68"></rect><rect width="444" height="3" x="53" y="475.5" rx="1.5" transform="rotate(45, 275, 477)" opacity="0.76"></rect><rect width="378" height="3" x="24" y="194.5" rx="1.5" transform="rotate(45, 213, 196)" opacity="0.48"></rect><rect width="446" height="3" x="-133" y="520.5" rx="1.5" transform="rotate(45, 90, 522)" opacity="0.96"></rect><rect width="63" height="3" x="494.5" y="224.5" rx="1.5" transform="rotate(45, 526, 226)" opacity="0.87"></rect><rect width="551" height="3" x="11.5" y="236.5" rx="1.5" transform="rotate(45, 287, 238)" opacity="0.97"></rect><rect width="605" height="3" x="-265.5" y="602.5" rx="1.5" transform="rotate(45, 37, 604)" opacity="0.42"></rect><rect width="382" height="3" x="133" y="134.5" rx="1.5" transform="rotate(45, 324, 136)" opacity="0.33"></rect><rect width="331" height="3" x="32.5" y="647.5" rx="1.5" transform="rotate(45, 198, 649)" opacity="0.17"></rect><rect width="255" height="3" x="192.5" y="335.5" rx="1.5" transform="rotate(45, 320, 337)" opacity="0.17"></rect><rect width="83" height="3" x="568.5" y="217.5" rx="1.5" transform="rotate(45, 610, 219)" opacity="0.65"></rect><rect width="491" height="3" x="448.5" y="104.5" rx="1.5" transform="rotate(45, 694, 106)" opacity="0.15"></rect><rect width="348" height="3" x="-82" y="218.5" rx="1.5" transform="rotate(45, 92, 220)" opacity="0.46"></rect><rect width="361" height="3" x="433.5" y="134.5" rx="1.5" transform="rotate(45, 614, 136)" opacity="0.41"></rect><rect width="94" height="3" x="458" y="656.5" rx="1.5" transform="rotate(45, 505, 658)" opacity="0.65"></rect><rect width="346" height="3" x="265" y="167.5" rx="1.5" transform="rotate(45, 438, 169)" opacity="0.18"></rect><rect width="106" height="3" x="142" y="498.5" rx="1.5" transform="rotate(45, 195, 500)" opacity="0.79"></rect><rect width="276" height="3" x="292" y="336.5" rx="1.5" transform="rotate(45, 430, 338)" opacity="0.69"></rect><rect width="157" height="3" x="257.5" y="49.5" rx="1.5" transform="rotate(45, 336, 51)" opacity="0.44"></rect><rect width="561" height="3" x="138.5" y="619.5" rx="1.5" transform="rotate(45, 419, 621)" opacity="0.50"></rect><rect width="650" height="3" x="-2" y="607.5" rx="1.5" transform="rotate(45, 323, 609)" opacity="0.70"></rect><rect width="358" height="3" x="517" y="221.5" rx="1.5" transform="rotate(45, 696, 223)" opacity="0.50"></rect><rect width="90" height="3" x="527" y="386.5" rx="1.5" transform="rotate(45, 572, 388)" opacity="0.25"></rect><rect width="553" height="3" x="359.5" y="518.5" rx="1.5" transform="rotate(45, 636, 520)" opacity="0.91"></rect><rect width="363" height="3" x="159.5" y="403.5" rx="1.5" transform="rotate(45, 341, 405)" opacity="0.83"></rect><rect width="560" height="3" x="384" y="592.5" rx="1.5" transform="rotate(45, 664, 594)" opacity="0.59"></rect><rect width="418" height="3" x="7" y="43.5" rx="1.5" transform="rotate(45, 216, 45)" opacity="0.07"></rect><rect width="337" height="3" x="302.5" y="750.5" rx="1.5" transform="rotate(45, 471, 752)" opacity="0.13"></rect><rect width="442" height="3" x="-94" y="342.5" rx="1.5" transform="rotate(45, 127, 344)" opacity="0.43"></rect><rect width="344" height="3" x="599" y="724.5" rx="1.5" transform="rotate(45, 771, 726)" opacity="0.34"></rect><rect width="534" height="3" x="-17" y="558.5" rx="1.5" transform="rotate(45, 250, 560)" opacity="0.99"></rect><rect width="304" height="3" x="220" y="532.5" rx="1.5" transform="rotate(45, 372, 534)" opacity="0.97"></rect><rect width="445" height="3" x="145.5" y="732.5" rx="1.5" transform="rotate(45, 368, 734)" opacity="0.78"></rect><rect width="264" height="3" x="141" y="711.5" rx="1.5" transform="rotate(45, 273, 713)" opacity="0.87"></rect><rect width="268" height="3" x="545" y="347.5" rx="1.5" transform="rotate(45, 679, 349)" opacity="1.00"></rect><rect width="366" height="3" x="425" y="299.5" rx="1.5" transform="rotate(45, 608, 301)" opacity="0.29"></rect><rect width="293" height="3" x="409.5" y="572.5" rx="1.5" transform="rotate(45, 556, 574)" opacity="0.52"></rect><rect width="167" height="3" x="105.5" y="403.5" rx="1.5" transform="rotate(45, 189, 405)" opacity="0.34"></rect><rect width="245" height="3" x="2.5" y="446.5" rx="1.5" transform="rotate(45, 125, 448)" opacity="0.54"></rect><rect width="70" height="3" x="226" y="388.5" rx="1.5" transform="rotate(45, 261, 390)" opacity="0.34"></rect><rect width="119" height="3" x="694.5" y="403.5" rx="1.5" transform="rotate(45, 754, 405)" opacity="0.46"></rect><rect width="100" height="3" x="460" y="347.5" rx="1.5" transform="rotate(45, 510, 349)" opacity="0.54"></rect><rect width="152" height="3" x="397" y="451.5" rx="1.5" transform="rotate(45, 473, 453)" opacity="0.77"></rect><rect width="186" height="3" x="264" y="191.5" rx="1.5" transform="rotate(45, 357, 193)" opacity="0.14"></rect><rect width="190" height="3" x="450" y="473.5" rx="1.5" transform="rotate(45, 545, 475)" opacity="0.18"></rect><rect width="322" height="3" x="464" y="39.5" rx="1.5" transform="rotate(45, 625, 41)" opacity="0.53"></rect><rect width="244" height="3" x="364" y="283.5" rx="1.5" transform="rotate(45, 486, 285)" opacity="0.37"></rect><rect width="237" height="3" x="630.5" y="508.5" rx="1.5" transform="rotate(45, 749, 510)" opacity="0.48"></rect><rect width="239" height="3" x="242.5" y="291.5" rx="1.5" transform="rotate(45, 362, 293)" opacity="0.42"></rect><rect width="47" height="3" x="166.5" y="757.5" rx="1.5" transform="rotate(45, 190, 759)" opacity="0.85"></rect><rect width="49" height="3" x="406.5" y="249.5" rx="1.5" transform="rotate(45, 431, 251)" opacity="0.75"></rect><rect width="452" height="3" x="396" y="667.5" rx="1.5" transform="rotate(45, 622, 669)" opacity="0.44"></rect><rect width="674" height="3" x="199" y="48.5" rx="1.5" transform="rotate(45, 536, 50)" opacity="0.79"></rect><rect width="279" height="3" x="255.5" y="464.5" rx="1.5" transform="rotate(45, 395, 466)" opacity="0.77"></rect><rect width="413" height="3" x="308.5" y="137.5" rx="1.5" transform="rotate(45, 515, 139)" opacity="0.89"></rect><rect width="119" height="3" x="652.5" y="29.5" rx="1.5" transform="rotate(45, 712, 31)" opacity="0.50"></rect><rect width="313" height="3" x="602.5" y="129.5" rx="1.5" transform="rotate(45, 759, 131)" opacity="0.36"></rect><rect width="564" height="3" x="-152" y="607.5" rx="1.5" transform="rotate(45, 130, 609)" opacity="0.38"></rect><rect width="331" height="3" x="-127.5" y="433.5" rx="1.5" transform="rotate(45, 38, 435)" opacity="0.97"></rect><rect width="677" height="3" x="100.5" y="56.5" rx="1.5" transform="rotate(45, 439, 58)" opacity="0.74"></rect><rect width="219" height="3" x="357.5" y="536.5" rx="1.5" transform="rotate(45, 467, 538)" opacity="0.44"></rect><rect width="253" height="3" x="-60.5" y="731.5" rx="1.5" transform="rotate(45, 66, 733)" opacity="0.18"></rect><rect width="54" height="3" x="721" y="621.5" rx="1.5" transform="rotate(45, 748, 623)" opacity="0.64"></rect><rect width="190" height="3" x="-56" y="301.5" rx="1.5" transform="rotate(45, 39, 303)" opacity="0.69"></rect><rect width="420" height="3" x="14" y="303.5" rx="1.5" transform="rotate(45, 224, 305)" opacity="0.69"></rect></g></svg>