<svg xmlns="http://www.w3.org/2000/svg" version="1.1" xmlns:xlink="http://www.w3.org/1999/xlink" xmlns:svgjs="http://svgjs.dev/svgjs" viewBox="0 0 800 800"><g fill="none" stroke-width="3" stroke="hsl(335, 77%, 50%)" stroke-linecap="square"><line x1="549" y1="400" x2="251" y2="400" transform="rotate(0, 400, 400)" opacity="0.13"></line><line x1="458.5" y1="400" x2="341.5" y2="400" transform="rotate(4, 400, 400)" opacity="0.86"></line><line x1="605.5" y1="400" x2="194.5" y2="400" transform="rotate(8, 400, 400)" opacity="0.84"></line><line x1="678" y1="400" x2="122" y2="400" transform="rotate(12, 400, 400)" opacity="0.94"></line><line x1="615.5" y1="400" x2="184.5" y2="400" transform="rotate(16, 400, 400)" opacity="0.61"></line><line x1="266" y1="400" x2="534" y2="400" transform="rotate(20, 400, 400)" opacity="0.19"></line><line x1="613.5" y1="400" x2="186.5" y2="400" transform="rotate(24, 400, 400)" opacity="0.22"></line><line x1="742" y1="400" x2="58" y2="400" transform="rotate(28, 400, 400)" opacity="0.36"></line><line x1="697.5" y1="400" x2="102.5" y2="400" transform="rotate(32, 400, 400)" opacity="0.16"></line><line x1="728" y1="400" x2="72" y2="400" transform="rotate(36, 400, 400)" opacity="0.50"></line><line x1="77" y1="400" x2="723" y2="400" transform="rotate(40, 400, 400)" opacity="0.35"></line><line x1="482.5" y1="400" x2="317.5" y2="400" transform="rotate(44, 400, 400)" opacity="0.51"></line><line x1="367" y1="400" x2="433" y2="400" transform="rotate(48, 400, 400)" opacity="0.86"></line><line x1="32.5" y1="400" x2="767.5" y2="400" transform="rotate(52, 400, 400)" opacity="0.11"></line><line x1="354" y1="400" x2="446" y2="400" transform="rotate(56, 400, 400)" opacity="0.64"></line><line x1="302" y1="400" x2="498" y2="400" transform="rotate(60, 400, 400)" opacity="0.34"></line><line x1="668.5" y1="400" x2="131.5" y2="400" transform="rotate(64, 400, 400)" opacity="0.62"></line><line x1="695.5" y1="400" x2="104.5" y2="400" transform="rotate(68, 400, 400)" opacity="0.28"></line><line x1="644" y1="400" x2="156" y2="400" transform="rotate(72, 400, 400)" opacity="0.37"></line><line x1="261.5" y1="400" x2="538.5" y2="400" transform="rotate(76, 400, 400)" opacity="0.39"></line><line x1="93.5" y1="400" x2="706.5" y2="400" transform="rotate(80, 400, 400)" opacity="0.89"></line><line x1="115" y1="400" x2="685" y2="400" transform="rotate(84, 400, 400)" opacity="0.35"></line><line x1="700.5" y1="400" x2="99.5" y2="400" transform="rotate(88, 400, 400)" opacity="0.11"></line><line x1="611" y1="400" x2="189" y2="400" transform="rotate(92, 400, 400)" opacity="0.54"></line><line x1="63" y1="400" x2="737" y2="400" transform="rotate(96, 400, 400)" opacity="0.38"></line><line x1="275" y1="400" x2="525" y2="400" transform="rotate(100, 400, 400)" opacity="0.51"></line><line x1="342" y1="400" x2="458" y2="400" transform="rotate(104, 400, 400)" opacity="0.22"></line><line x1="425" y1="400" x2="375" y2="400" transform="rotate(108, 400, 400)" opacity="0.88"></line><line x1="438" y1="400" x2="362" y2="400" transform="rotate(112, 400, 400)" opacity="0.92"></line><line x1="571" y1="400" x2="229" y2="400" transform="rotate(116, 400, 400)" opacity="0.96"></line><line x1="392.5" y1="400" x2="407.5" y2="400" transform="rotate(120, 400, 400)" opacity="0.59"></line><line x1="56.5" y1="400" x2="743.5" y2="400" transform="rotate(124, 400, 400)" opacity="0.92"></line><line x1="159.5" y1="400" x2="640.5" y2="400" transform="rotate(128, 400, 400)" opacity="0.33"></line><line x1="321.5" y1="400" x2="478.5" y2="400" transform="rotate(132, 400, 400)" opacity="0.59"></line><line x1="552" y1="400" x2="248" y2="400" transform="rotate(136, 400, 400)" opacity="0.34"></line><line x1="370.5" y1="400" x2="429.5" y2="400" transform="rotate(140, 400, 400)" opacity="0.63"></line><line x1="278" y1="400" x2="522" y2="400" transform="rotate(144, 400, 400)" opacity="0.25"></line><line x1="188" y1="400" x2="612" y2="400" transform="rotate(148, 400, 400)" opacity="0.80"></line><line x1="292.5" y1="400" x2="507.5" y2="400" transform="rotate(152, 400, 400)" opacity="0.35"></line><line x1="511.5" y1="400" x2="288.5" y2="400" transform="rotate(156, 400, 400)" opacity="0.11"></line><line x1="367.5" y1="400" x2="432.5" y2="400" transform="rotate(160, 400, 400)" opacity="0.94"></line><line x1="706" y1="400" x2="94" y2="400" transform="rotate(164, 400, 400)" opacity="0.28"></line><line x1="400.5" y1="400" x2="399.5" y2="400" transform="rotate(168, 400, 400)" opacity="0.17"></line><line x1="142" y1="400" x2="658" y2="400" transform="rotate(172, 400, 400)" opacity="0.58"></line><line x1="357" y1="400" x2="443" y2="400" transform="rotate(176, 400, 400)" opacity="0.87"></line><line x1="558.5" y1="400" x2="241.5" y2="400" transform="rotate(180, 400, 400)" opacity="0.49"></line><line x1="282.5" y1="400" x2="517.5" y2="400" transform="rotate(184, 400, 400)" opacity="0.44"></line><line x1="213.5" y1="400" x2="586.5" y2="400" transform="rotate(188, 400, 400)" opacity="0.71"></line><line x1="392.5" y1="400" x2="407.5" y2="400" transform="rotate(192, 400, 400)" opacity="0.37"></line><line x1="30" y1="400" x2="770" y2="400" transform="rotate(196, 400, 400)" opacity="0.62"></line><line x1="93" y1="400" x2="707" y2="400" transform="rotate(200, 400, 400)" opacity="0.27"></line><line x1="126.5" y1="400" x2="673.5" y2="400" transform="rotate(204, 400, 400)" opacity="0.21"></line><line x1="479" y1="400" x2="321" y2="400" transform="rotate(208, 400, 400)" opacity="0.56"></line><line x1="115.5" y1="400" x2="684.5" y2="400" transform="rotate(212, 400, 400)" opacity="0.09"></line><line x1="145.5" y1="400" x2="654.5" y2="400" transform="rotate(216, 400, 400)" opacity="0.07"></line><line x1="337.5" y1="400" x2="462.5" y2="400" transform="rotate(220, 400, 400)" opacity="0.20"></line><line x1="719.5" y1="400" x2="80.5" y2="400" transform="rotate(224, 400, 400)" opacity="0.36"></line><line x1="650.5" y1="400" x2="149.5" y2="400" transform="rotate(228, 400, 400)" opacity="0.54"></line><line x1="181.5" y1="400" x2="618.5" y2="400" transform="rotate(232, 400, 400)" opacity="0.86"></line><line x1="392" y1="400" x2="408" y2="400" transform="rotate(236, 400, 400)" opacity="0.39"></line><line x1="237.5" y1="400" x2="562.5" y2="400" transform="rotate(240, 400, 400)" opacity="0.23"></line><line x1="437" y1="400" x2="363" y2="400" transform="rotate(244, 400, 400)" opacity="0.80"></line><line x1="432" y1="400" x2="368" y2="400" transform="rotate(248, 400, 400)" opacity="0.76"></line><line x1="409" y1="400" x2="391" y2="400" transform="rotate(252, 400, 400)" opacity="0.92"></line><line x1="309" y1="400" x2="491" y2="400" transform="rotate(256, 400, 400)" opacity="0.42"></line><line x1="398" y1="400" x2="402" y2="400" transform="rotate(260, 400, 400)" opacity="0.67"></line><line x1="268.5" y1="400" x2="531.5" y2="400" transform="rotate(264, 400, 400)" opacity="0.21"></line><line x1="343" y1="400" x2="457" y2="400" transform="rotate(268, 400, 400)" opacity="0.18"></line><line x1="450" y1="400" x2="350" y2="400" transform="rotate(272, 400, 400)" opacity="0.85"></line><line x1="674" y1="400" x2="126" y2="400" transform="rotate(276, 400, 400)" opacity="0.10"></line><line x1="312" y1="400" x2="488" y2="400" transform="rotate(280, 400, 400)" opacity="0.59"></line><line x1="729" y1="400" x2="71" y2="400" transform="rotate(284, 400, 400)" opacity="0.80"></line><line x1="473.5" y1="400" x2="326.5" y2="400" transform="rotate(288, 400, 400)" opacity="0.29"></line><line x1="172" y1="400" x2="628" y2="400" transform="rotate(292, 400, 400)" opacity="0.96"></line><line x1="582" y1="400" x2="218" y2="400" transform="rotate(296, 400, 400)" opacity="0.40"></line><line x1="562" y1="400" x2="238" y2="400" transform="rotate(300, 400, 400)" opacity="0.87"></line><line x1="61.5" y1="400" x2="738.5" y2="400" transform="rotate(304, 400, 400)" opacity="0.23"></line><line x1="409.5" y1="400" x2="390.5" y2="400" transform="rotate(308, 400, 400)" opacity="0.88"></line><line x1="507" y1="400" x2="293" y2="400" transform="rotate(312, 400, 400)" opacity="0.70"></line><line x1="158.5" y1="400" x2="641.5" y2="400" transform="rotate(316, 400, 400)" opacity="0.81"></line><line x1="164.5" y1="400" x2="635.5" y2="400" transform="rotate(320, 400, 400)" opacity="0.32"></line><line x1="445" y1="400" x2="355" y2="400" transform="rotate(324, 400, 400)" opacity="1.00"></line><line x1="701" y1="400" x2="99" y2="400" transform="rotate(328, 400, 400)" opacity="0.89"></line><line x1="662" y1="400" x2="138" y2="400" transform="rotate(332, 400, 400)" opacity="0.55"></line><line x1="608" y1="400" x2="192" y2="400" transform="rotate(336, 400, 400)" opacity="0.95"></line><line x1="659" y1="400" x2="141" y2="400" transform="rotate(340, 400, 400)" opacity="0.79"></line><line x1="668.5" y1="400" x2="131.5" y2="400" transform="rotate(344, 400, 400)" opacity="0.83"></line><line x1="83.5" y1="400" x2="716.5" y2="400" transform="rotate(348, 400, 400)" opacity="0.51"></line></g></svg>